<svg width="18" height="25" viewBox="0 0 18 25" fill="none" xmlns="http://www.w3.org/2000/svg">
<path d="M2.18945 22.417L14.4033 24.5762C16.5947 24.9629 17.9268 23.749 17.9268 21.3535V8.06543C17.9268 6.89453 17.6045 6.12109 16.9707 5.59473V3.51074C16.9707 1.25488 15.4561 0.169922 12.9102 0.621094L1.85645 2.57617C0.760742 2.70508 0.0732422 3.53223 0.0732422 4.82129V19.9785C0.0732422 21.3643 0.782227 22.1699 2.18945 22.417ZM14.6182 4.70312L6.90527 3.33887L13.5225 2.24316C14.5967 2.06055 15.2412 2.51172 15.2412 3.44629V4.83203C15.0371 4.77832 14.833 4.73535 14.6182 4.70312ZM2.6084 20.709C2.06055 20.623 1.80273 20.3008 1.80273 19.7314V5.11133C1.80273 4.53125 2.18945 4.24121 2.82324 4.34863L14.5322 6.40039C15.6172 6.60449 16.1973 7.04492 16.1973 8.04395V21.1709C16.1973 22.3848 15.4883 22.9971 14.3281 22.7822L2.6084 20.709ZM4.48828 9.0752L12.7705 10.5361C13.2754 10.6221 13.5869 10.3105 13.5869 9.85938C13.5869 9.45117 13.3828 9.23633 13.0068 9.16113L4.76758 7.72168C4.27344 7.63574 3.92969 7.92578 3.92969 8.36621C3.92969 8.74219 4.13379 9.01074 4.48828 9.0752ZM4.48828 13.2646L12.7705 14.7256C13.2754 14.8115 13.5869 14.5 13.5869 14.0488C13.5869 13.6406 13.3828 13.4258 13.0068 13.3506L4.76758 11.9111C4.27344 11.8252 3.92969 12.1152 3.92969 12.5557C3.92969 12.9316 4.13379 13.2002 4.48828 13.2646Z" fill="white"/>
</svg>
